<?xml version="1.0" encoding="utf-8"?>
<!-- Generator: Adobe Illustrator 22.0.1, SVG Export Plug-In . SVG Version: 6.00 Build 0)  -->
<svg version="1.1" id="Capa_1" xmlns="http://www.w3.org/2000/svg" xmlns:xlink="http://www.w3.org/1999/xlink" x="0px" y="0px"
	 viewBox="0 0 512 512" style="enable-background:new 0 0 512 512;" xml:space="preserve">
<style type="text/css">
	.st0{fill:#F5862D;}
</style>
<g id="Page-1">
	<g id="_x30_36---Trophy" transform="translate(-1)">
		<path id="Shape" class="st0" d="M163.6,337.9c0.8-2.9,0-6.1-2.1-8.3c-6.7-6.8-12.4-14.4-17-22.7c-2.3-4.1-7.5-5.6-11.6-3.3
			c-4.1,2.3-5.6,7.5-3.3,11.6c2.9,5.2,6.2,10.1,9.8,14.8c-4.9,0.7-9.9,1.1-14.8,1.2c-3,0-5.9,1.7-7.4,4.3c-1.5,2.7-1.5,5.9,0.1,8.5
			c1.5,2.6,4.4,4.2,7.4,4.2h0.2c11-0.2,22-1.7,32.7-4.5C160.4,343.1,162.8,340.9,163.6,337.9L163.6,337.9z"/>
		<path id="Shape_1_" class="st0" d="M117.7,307.8c-3.4-9-5.7-18.4-7.1-27.9c-0.4-3.1-2.4-5.7-5.3-6.9c-2.9-1.2-6.1-0.7-8.6,1.2
			c-2.4,1.9-3.6,5-3.1,8.1c0.8,5.7,2,11.4,3.5,17.1c-4-1.1-7.9-2.5-11.7-4.1c-2.8-1.2-6.1-0.8-8.5,1.1c-2.4,1.9-3.7,4.9-3.3,8
			c0.4,3.1,2.5,5.6,5.3,6.8c9.5,3.9,19.4,6.6,29.6,8.1c0.4,0.1,0.8,0.1,1.2,0.1c2.8,0,5.4-1.4,7-3.7
			C118.3,313.3,118.7,310.4,117.7,307.8L117.7,307.8z"/>
		<path id="Shape_2_" class="st0" d="M78.1,279c2.3,0,4.5-0.9,6.1-2.6c1.6-1.7,2.5-3.9,2.4-6.2c-0.3-9.8,0.3-19.5,1.8-29.2
			c0.6-4.6-2.6-8.9-7.2-9.6s-8.9,2.4-9.7,7c-0.8,5.2-1.4,10.5-1.7,15.9c-3-2.4-5.9-4.9-8.8-7.7c-3.4-3.2-8.7-3-12,0.4
			c-3.2,3.4-3.1,8.7,0.2,12c7.4,7.2,15.6,13.5,24.4,18.8C75.1,278.6,76.6,279,78.1,279L78.1,279z"/>
		<path id="Shape_3_" class="st0" d="M60.6,228.9c3.9,0,7.3-2.6,8.3-6.4c2.3-9.2,5.5-18.2,9.4-26.9c1.4-2.8,1.1-6.1-0.7-8.6
			s-4.8-3.9-7.9-3.6c-3.1,0.3-5.8,2.3-7,5.1c-1.9,4.2-3.7,8.5-5.3,13c-2.2-3.5-4.3-7-6.3-10.8c-1.4-2.8-4.2-4.6-7.3-4.7
			c-3.1-0.1-6,1.4-7.6,4.1c-1.6,2.6-1.7,6-0.1,8.7c5.1,9.5,11,18.6,17.8,27C55.6,227.8,58,228.9,60.6,228.9L60.6,228.9z"/>
		<path id="Shape_4_" class="st0" d="M39.2,136.9c2.4,11.1,5.7,21.9,10,32.4c1.2,3,4.1,5.1,7.3,5.3c0.2,0,0.4,0,0.6,0
			c3,0,5.8-1.6,7.4-4.2c4.5-7.7,9.7-14.9,15.6-21.6c3.1-3.5,2.8-8.9-0.7-12.1c-3.5-3.1-8.9-2.8-12.1,0.7c-2.7,3-5.3,6.3-7.9,9.7
			c-1.3-4.5-2.5-9.1-3.6-13.8c-0.6-3-2.8-5.5-5.7-6.5c-2.9-1-6.2-0.2-8.4,1.9C39.4,130.8,38.5,133.9,39.2,136.9L39.2,136.9z"/>
		<path id="Shape_5_" class="st0" d="M67.3,71.6c-4.7-0.3-8.7,3.3-9,8c-0.7,11.5-0.4,23.1,0.9,34.6c0.4,3.2,2.4,5.9,5.4,7
			c3,1.1,6.3,0.5,8.7-1.5c6.2-5.5,13-10.2,20.2-14.1c2.7-1.4,4.5-4.2,4.6-7.2s-1.4-6-4-7.6c-2.6-1.6-5.9-1.7-8.6-0.3
			c-3.6,1.9-7.1,4-10.5,6.3c-0.1-5.3,0-10.7,0.3-16.1c0.1-2.3-0.6-4.5-2.1-6.2C71.7,72.7,69.6,71.7,67.3,71.6z"/>
		<path id="Shape_6_" class="st0" d="M126.5,60.9c-0.2-2.3-1.2-4.4-3-5.8c-1.7-1.5-4-2.2-6.3-1.9c-4.5,0.4-9,1.1-13.5,2
			c1.5-5.4,3.4-10.8,5.6-16c1.2-2.8,0.7-6-1.1-8.5c-1.9-2.4-4.9-3.7-7.9-3.3c-3,0.4-5.6,2.4-6.8,5.2c-4.4,10.7-7.7,21.8-9.8,33.2
			c-0.6,3,0.5,6.1,2.9,8.1c2.3,2,5.5,2.6,8.4,1.5c7.6-2.7,15.6-4.5,23.7-5.2C123.4,69.7,126.9,65.6,126.5,60.9z"/>
		<path id="Shape_7_" class="st0" d="M156.6,47.4c2.9,0.9,6.1,0.2,8.3-1.9c2.2-2.1,3.2-5.2,2.5-8.2c-0.7-3-2.9-5.4-5.8-6.3
			c-5.1-1.6-10.4-2.8-15.7-3.8c3.5-4.4,7.4-8.6,11.5-12.5c3.4-3.2,3.6-8.6,0.3-12.1s-8.6-3.6-12.1-0.3c-8.6,8.1-16,17.2-22.2,27.2
			c-1.6,2.6-1.7,5.7-0.3,8.4c1.4,2.7,4.1,4.4,7.1,4.6C139.2,43.1,148,44.7,156.6,47.4z"/>
		<path id="Shape_8_" class="st0" d="M389.5,331.3c-5-0.1-9.9-0.5-14.8-1.2c3.6-4.7,6.9-9.6,9.8-14.8c2.3-4.1,0.8-9.3-3.3-11.6
			c-4.1-2.3-9.3-0.8-11.6,3.3c-4.7,8.3-10.4,15.9-17,22.7c-2.1,2.2-3,5.3-2.1,8.3s3.1,5.2,6.1,6c10.7,2.7,21.7,4.2,32.7,4.5h0.2
			c4.7,0,8.6-3.7,8.6-8.5C398,335.2,394.2,331.3,389.5,331.3z"/>
		<path id="Shape_9_" class="st0" d="M428.5,295.4c-3.8,1.6-7.8,2.9-11.7,4.1c1.5-5.6,2.6-11.3,3.5-17.1c0.5-3.1-0.7-6.1-3.1-8.1
			c-2.4-1.9-5.7-2.4-8.6-1.2c-2.9,1.2-4.9,3.8-5.3,6.9c-1.4,9.5-3.8,18.9-7.1,27.9c-1,2.6-0.6,5.5,1,7.8c1.6,2.3,4.2,3.7,7,3.7
			c0.4,0,0.8,0,1.2-0.1c10.2-1.4,20.1-4.1,29.6-8.1c2.9-1.1,4.9-3.7,5.3-6.8c0.4-3.1-0.8-6.1-3.3-8
			C434.6,294.6,431.4,294.2,428.5,295.4L428.5,295.4z"/>
		<path id="Shape_10_" class="st0" d="M452.9,246.7c-2.9,2.7-5.8,5.3-8.8,7.7c-0.3-5.4-0.9-10.7-1.7-15.9c-0.8-4.6-5.1-7.7-9.7-7
			c-4.6,0.7-7.8,5-7.2,9.6c1.5,9.7,2.1,19.4,1.8,29.2c-0.1,3.1,1.5,6,4.2,7.6c2.7,1.6,6,1.6,8.7,0c8.8-5.3,17-11.6,24.4-18.8
			c3.3-3.3,3.4-8.6,0.1-11.9C461.6,243.7,456.3,243.6,452.9,246.7L452.9,246.7z"/>
		<path id="Shape_11_" class="st0" d="M474.4,187.2c-2-1.1-4.3-1.3-6.5-0.7c-2.2,0.7-4,2.1-5.1,4.1c-2,3.7-4.1,7.3-6.3,10.8
			c-1.6-4.5-3.4-8.8-5.3-13c-1.2-2.9-3.9-4.8-7-5.1c-3.1-0.3-6.1,1.1-7.9,3.6c-1.8,2.5-2,5.9-0.7,8.6c3.9,8.7,7.1,17.7,9.4,26.9
			c0.8,3.1,3.3,5.5,6.4,6.2c3.1,0.7,6.4-0.5,8.5-3c6.8-8.4,12.8-17.4,17.8-27C480.1,194.6,478.5,189.5,474.4,187.2L474.4,187.2z"/>
		<path id="Shape_12_" class="st0" d="M449.5,170.4c1.5,2.6,4.3,4.2,7.4,4.2c0.2,0,0.4,0,0.6,0c3.2-0.2,6.1-2.3,7.3-5.3
			c4.3-10.5,7.6-21.3,10-32.4c0.7-3-0.2-6.2-2.5-8.3c-2.3-2.1-5.5-2.8-8.4-1.9c-2.9,1-5.1,3.4-5.7,6.5c-1,4.7-2.2,9.3-3.6,13.8
			c-2.5-3.4-5.2-6.6-7.9-9.7c-3.1-3.5-8.5-3.8-12.1-0.7c-3.5,3.1-3.8,8.5-0.7,12.1C439.9,155.5,445.1,162.7,449.5,170.4L449.5,170.4
			z"/>
		<path id="Shape_13_" class="st0" d="M420.5,105.5c7.3,3.9,14.1,8.6,20.2,14.1c2.4,2.1,5.7,2.7,8.7,1.6s5-3.8,5.4-7
			c1.3-11.5,1.6-23.1,0.9-34.6c-0.2-3.1-2-5.8-4.7-7.2c-2.7-1.4-6-1.2-8.6,0.5s-4,4.6-3.8,7.7c0.3,5.4,0.4,10.7,0.3,16.1
			c-3.4-2.3-6.9-4.4-10.5-6.3c-4.2-2.2-9.3-0.6-11.5,3.6C414.8,98.1,416.4,103.2,420.5,105.5L420.5,105.5z"/>
		<path id="Shape_14_" class="st0" d="M395.3,70.1c8.1,0.7,16,2.5,23.7,5.2c2.9,1,6.1,0.4,8.4-1.5s3.4-5.1,2.9-8.1
			c-2.1-11.4-5.4-22.5-9.8-33.2c-1.2-2.8-3.8-4.8-6.8-5.2c-3-0.4-6,0.9-7.9,3.3s-2.3,5.6-1.1,8.5c2.2,5.2,4,10.6,5.6,16
			c-4.4-1-8.9-1.6-13.5-2c-2.3-0.2-4.5,0.5-6.3,1.9c-1.7,1.5-2.8,3.6-3,5.8C387.1,65.6,390.6,69.7,395.3,70.1L395.3,70.1z"/>
		<path id="Shape_15_" class="st0" d="M346.7,41.7c0.7,2.2,2.2,4,4.2,5c2,1.1,4.3,1.3,6.5,0.6c8.6-2.6,17.4-4.3,26.3-4.8
			c3-0.2,5.7-1.9,7.1-4.6c1.4-2.7,1.3-5.9-0.3-8.4c-6.2-10-13.7-19.1-22.2-27.2c-3.4-3.2-8.8-3.1-12.1,0.3
			c-3.2,3.4-3.1,8.8,0.3,12.1c4.1,3.9,8,8.1,11.5,12.5c-5.3,0.9-10.5,2.2-15.7,3.8c-2.2,0.7-4,2.2-5,4.2
			C346.3,37.2,346.1,39.5,346.7,41.7L346.7,41.7z"/>
		<path id="Shape_16_" class="st0" d="M367.9,401.1h-68.3v-68.3c9.4,0,17.1-7.6,17.1-17.1v-17.1c0-9.4-7.6-17.1-17.1-17.1h-17.1
			v-39.5l39.5,20.6c5.4,2.8,11.9,2.3,16.8-1.3c4.9-3.5,7.3-9.6,6.3-15.5l-12.4-71.9l52.6-50.9c4.4-4.2,5.9-10.5,4.1-16.3
			c-1.9-5.8-6.9-10-12.9-10.8l-72.7-10.5l-32.5-65.5c-2.7-5.4-8.2-8.8-14.3-8.8c-6,0-11.6,3.4-14.3,8.8l-32.5,65.5L137.4,96
			c-6,0.8-11,5-12.9,10.8s-0.3,12.1,4.1,16.3l52.6,50.9l-12.4,71.9c-1,6,1.5,12,6.4,15.5c4.9,3.6,11.4,4,16.7,1.2l39.5-20.6v39.5
			h-17.1c-9.4,0-17.1,7.6-17.1,17.1v17.1c0,9.4,7.6,17.1,17.1,17.1v68.3h-68.3c-9.4,0-17.1,7.6-17.1,17.1v17.1
			c0,9.4,7.6,17.1,17.1,17.1v42.7c0,9.4,7.6,17.1,17.1,17.1h187.7c9.4,0,17.1-7.6,17.1-17.1v-42.7c9.4,0,17.1-7.6,17.1-17.1v-17.1
			C385,408.7,377.4,401.1,367.9,401.1L367.9,401.1z M186,246.5l12.1-70.2c0.9-5.2-0.8-10.4-4.6-14.1l-51.3-49.7l71-10.2
			c5.2-0.7,9.7-4,12-8.7l31.8-64l31.8,64c2.3,4.7,6.8,7.9,12,8.7l71,10.2l-51.3,49.7c-3.8,3.6-5.5,8.9-4.6,14.1l12.1,70.2
			l-63.6-33.2c-4.6-2.4-10.1-2.4-14.8,0L186,246.5z M248.5,233.2l8.5-4.5l8.5,4.5v48.4h-17.1V233.2z M214.3,298.7h85.3l0,17.1h-85.3
			V298.7z M231.4,332.8h51.2v68.3h-51.2V332.8z M350.9,494.9H163.1v-42.7h187.7L350.9,494.9z M359.4,435.2H146.1v-17.1h221.9l0,17.1
			H359.4z"/>
	</g>
</g>
</svg>
