<?xml version="1.0" encoding="utf-8"?>
<!-- Generator: Adobe Illustrator 22.0.1, SVG Export Plug-In . SVG Version: 6.00 Build 0)  -->
<svg version="1.1" id="Capa_1" xmlns="http://www.w3.org/2000/svg" xmlns:xlink="http://www.w3.org/1999/xlink" x="0px" y="0px"
	 viewBox="0 0 128 128" style="enable-background:new 0 0 128 128;" xml:space="preserve">
<style type="text/css">
	.st0{fill:#FEC868;}
	.st1{fill:#333333;}
	.st2{fill:#4D4D4D;}
	.st3{fill:#1F1F1F;}
	.st4{fill:#666666;}
	.st5{fill:#FFC219;}
	.st6{fill:#FFCE47;}
	.st7{fill:#F47C27;}
	.st8{fill:#F69652;}
	.st9{fill:#FFDA75;}
</style>
<circle class="st0" cx="63" cy="62" r="53.5"/>
<title></title>
<g id="_20_Graduation">
	<path class="st1" d="M32,56v24.1c0,1.7,0.7,3.4,2,4.5c17.1,15.2,42.9,15.2,60,0c1.3-1.1,2-2.8,2-4.5V56H32z"/>
	<path class="st2" d="M34.1,60.8H96V56H32v24.1c0,1.7,0.8,3.4,2.1,4.6V60.8z"/>
	<path class="st3" d="M32,56v7.5l35.4,17.7c1.2,0.6,2.6,0.6,3.8,0L89.5,72c1.3-0.6,2.8-0.1,3.4,1.1c0.2,0.4,0.3,0.8,0.3,1.2v5.8
		c0,1.7-0.7,3.3-2,4.5c-7.9,7-18,11.1-28.6,11.4c11.5,0.4,22.8-3.7,31.4-11.4c1.3-1.1,2-2.8,2-4.5V56H32z"/>
	<path class="st2" d="M62.1,32.5L17.2,54.9c-1,0.5-1.5,1.8-0.9,2.8c0.2,0.4,0.5,0.7,0.9,0.9l44.9,22.5c1.2,0.6,2.6,0.6,3.8,0
		l45-22.5c1-0.5,1.5-1.8,0.9-2.8c-0.2-0.4-0.5-0.7-0.9-0.9L65.9,32.5C64.7,31.9,63.3,31.9,62.1,32.5z"/>
	<path class="st4" d="M20.5,58.8c-1.1-0.5-1.5-1.8-1-2.9c0.2-0.4,0.6-0.8,1-1c0,0,42.7-23,41.6-22.4l-45,22.5
		c-1,0.5-1.5,1.8-0.9,2.8c0.2,0.4,0.5,0.7,0.9,0.9l44.9,22.5C63.2,81.7,20.5,58.8,20.5,58.8z"/>
	<path class="st1" d="M107.5,58.8c1.1-0.5,1.5-1.8,1-2.9c-0.2-0.4-0.6-0.8-1-1c0,0-42.7-23-41.6-22.4l45,22.5c1,0.5,1.5,1.8,0.9,2.8
		c-0.2,0.4-0.5,0.7-0.9,0.9L65.9,81.2C64.8,81.7,107.5,58.8,107.5,58.8z"/>
	<path class="st3" d="M40.7,89.5c0.6,0.3,1.2,0.7,1.7,1V71.4l-1.7-0.7V89.5z"/>
	<path class="st3" d="M39.7,83.2c-1.8,0-3.4,1.2-3.8,2.9c2,1.6,4.1,3,6.3,4.2c1.7-1.4,2-3.9,0.7-5.6C42.1,83.8,40.9,83.2,39.7,83.2z
		"/>
	<path class="st5" d="M36.7,96V69.5c0-0.8,0.4-1.5,1.1-1.8L63.1,55c1-0.5,2.2-0.1,2.7,0.9c0.5,1,0.1,2.2-0.9,2.7L40.7,70.7V96
		c0,1.1-0.9,2-2,2S36.7,97.1,36.7,96z"/>
	<path class="st6" d="M63.1,55L37.8,67.7c-0.7,0.3-1.1,1-1.1,1.8V96l0.7-26.6c0-0.4,0.2-0.8,0.6-1L63.1,55z"/>
	<path class="st7" d="M65.1,55.1c0.6,0.9,0.4,2.1-0.5,2.8c-0.1,0.1-0.2,0.1-0.3,0.2l-23.9,12c-0.3,0.2-0.6,0.5-0.6,0.9l0.2,24.5
		c0,1.1-0.9,2-2,2c-0.4,0-0.7-0.1-1.1-0.3c0.6,0.9,1.9,1.1,2.8,0.5c0.6-0.4,0.9-1.1,0.8-1.7V70.7l24.1-12c1-0.4,1.5-1.6,1.1-2.6
		C65.7,55.7,65.4,55.3,65.1,55.1z"/>
	<path class="st7" d="M36.7,89.7c1.1,0.9,2.7,1.2,4,0.6v-7.4c-1.3-0.5-2.9-0.3-4,0.6V89.7z"/>
	<circle class="st6" cx="38.7" cy="86.2" r="4"/>
	<path class="st8" d="M41.4,83.3c3.5,3.7-1.9,9.1-5.6,5.6c1.4,1.7,4,1.9,5.6,0.4c1.7-1.4,1.9-4,0.4-5.6
		C41.7,83.6,41.6,83.4,41.4,83.3z"/>
	<path class="st9" d="M41.6,83.5c-1.4-1.7-3.9-2-5.6-0.6s-2,3.9-0.6,5.6c0.2,0.2,0.4,0.4,0.6,0.6C32.5,85.4,37.9,80,41.6,83.5z"/>
	<polygon class="st1" points="64.9,58.6 42.4,71.4 40.7,70.7 	"/>
</g>
</svg>
