<?xml version="1.0" encoding="utf-8"?>
<!-- Generator: Adobe Illustrator 22.0.1, SVG Export Plug-In . SVG Version: 6.00 Build 0)  -->
<svg version="1.1" id="Capa_1" xmlns="http://www.w3.org/2000/svg" xmlns:xlink="http://www.w3.org/1999/xlink" x="0px" y="0px"
	 viewBox="0 0 511 511" style="enable-background:new 0 0 511 511;" xml:space="preserve">
<style type="text/css">
	.st0{fill:#F5862D;}
</style>
<path class="st0" d="M489,34.6c-13.5-12.9-34.7-12.9-48.2,0l-24.1,24.1l-24.1,24.1L368.4,107l-7.3-27.1l-11.1-41
	c-1.1-4.4-4-8.1-7.9-10.4c-3.9-2.3-8.6-2.9-13-1.7L16.4,110.5c-3,0.9-5.6,2.6-7.7,4.9c-5.3,2.9-8.7,8.5-8.8,14.6v340.7
	c0,9.4,7.6,17,17,17h323.6c9.4,0,17-7.6,17-17V443l32.1-4.4c4.5-0.6,8.5-3,11.2-6.6c2.7-3.6,3.9-8.1,3.3-12.6l-3.3-23.8l25.3-6.8
	c9-2.5,14.3-11.8,11.9-20.9L393.9,202l59-59l24.1-24.1L501,94.8c13.3-13.3,13.3-34.9,0-48.2L489,34.6z M422.7,76.7l12,12l-12,12.1
	l-12-12.1L422.7,76.7z M66.9,465.9l-29-210.6l54.9,205c0.2,0.7,0.4,1.3,0.7,2L66.9,465.9z M333.6,43.2l8.9,32.8L29.9,159.8
	l-8.7-32.4c0.2-0.2,0.4-0.5,0.5-0.8L333.6,43.2z M17,229.3l33,238.9c0.1,0.8,0.3,1.6,0.6,2.4H17V229.3z M340.7,470.6H156.9
	l183.7-25.3V470.6z M387.5,421.7l-174.1,24l171.2-45.8L387.5,421.7z M421.9,372.2l-312.6,83.7L34.3,176.3l312.6-83.8l7.6,28.4
	L248.1,227.3c-0.3,0.4-0.5,0.7-0.8,1.2c-0.3,0.4-0.6,0.7-0.9,1.1l-35.6,73.1c-2.5,6.3-1,13.4,3.8,18.2c3.1,3.2,7.4,4.9,11.8,4.9
	c2.4,0,4.8-0.5,7-1.4l72.5-35.3c0.4-0.3,0.7-0.5,1.1-0.8c0.4-0.2,0.8-0.5,1.2-0.8l71.6-71.6L421.9,372.2z M240.1,281.6
	c6,3.2,11,8.1,14.1,14.2l-27.6,13.7L240.1,281.6z M269.4,288.2c-4.8-9.5-12.4-17.2-21.9-21.9l9-18.5l31.3,31.3L269.4,288.2z
	 M302.3,269.4l-36.1-36.1l132.5-132.5l18.1,18.1l18.1,18.1L302.3,269.4z M446.8,124.9l-12-12l12-12l12.1,12L446.8,124.9z M489,82.7
	l-18.1,18.1l-18.1-18l-18.1-18.1l18.1-18.1c6.7-6.4,17.4-6.4,24.1,0l12,12C495.6,65.3,495.6,76.1,489,82.7L489,82.7z"/>
<path class="st0" d="M392.6,130.9l-6,6c-2.2,2.1-3.1,5.3-2.3,8.3c0.8,3,3.1,5.3,6.1,6.1c3,0.8,6.1-0.1,8.3-2.3l6-6
	c3.2-3.3,3.2-8.7-0.1-11.9C401.3,127.7,396,127.7,392.6,130.9z"/>
<path class="st0" d="M362.5,161l-60.2,60.2c-2.2,2.1-3.1,5.3-2.3,8.3c0.8,3,3.1,5.3,6.1,6.1c3,0.8,6.1-0.1,8.3-2.3l60.2-60.2
	c2.2-2.1,3-5.3,2.2-8.2c-0.8-2.9-3.1-5.2-6-6C367.8,158,364.7,158.9,362.5,161z"/>
</svg>
